<svg width="146" height="146" viewBox="0 0 146 146" fill="none" xmlns="http://www.w3.org/2000/svg">
<path d="M127.75 48.6667L115.583 60.8333L106.458 38.325C105.598 36.0215 104.059 34.0327 102.046 32.621C100.033 31.2092 97.6387 30.4407 95.1798 30.4167H51.1C48.6211 30.3597 46.1839 31.0616 44.1149 32.4282C42.046 33.7948 40.4439 35.761 39.5234 38.0634L30.4167 60.8333L18.25 48.6667" stroke="#F59D2A" stroke-width="9" stroke-linecap="round" stroke-linejoin="round"/>
<path d="M42.5834 85.1666H42.6438" stroke="#F59D2A" stroke-width="9" stroke-linecap="round" stroke-linejoin="round"/>
<path d="M103.417 85.1666H103.477" stroke="#F59D2A" stroke-width="9" stroke-linecap="round" stroke-linejoin="round"/>
<path d="M115.583 60.8334H30.4167C23.6972 60.8334 18.25 66.2806 18.25 73V97.3334C18.25 104.053 23.6972 109.5 30.4167 109.5H115.583C122.303 109.5 127.75 104.053 127.75 97.3334V73C127.75 66.2806 122.303 60.8334 115.583 60.8334Z" stroke="#F59D2A" stroke-width="9" stroke-linecap="round" stroke-linejoin="round"/>
<path d="M30.4166 109.5V121.667" stroke="#F59D2A" stroke-width="9" stroke-linecap="round" stroke-linejoin="round"/>
<path d="M115.583 109.5V121.667" stroke="#F59D2A" stroke-width="9" stroke-linecap="round" stroke-linejoin="round"/>
</svg>
