<svg width="172" height="44" viewBox="0 0 172 44" fill="none" xmlns="http://www.w3.org/2000/svg">
<path d="M6.57386 35.3068C5.32955 35.3068 4.25994 35.1023 3.36506 34.6932C2.47869 34.2756 1.83097 33.6449 1.42188 32.8011C1.02131 31.9489 0.931818 30.875 1.15341 29.5795C1.33239 28.5057 1.66903 27.5895 2.16335 26.831C2.65767 26.0724 3.27131 25.4503 4.00426 24.9645C4.73722 24.4787 5.55966 24.108 6.47159 23.8523C7.39205 23.5881 8.36364 23.4176 9.38636 23.3409C10.4943 23.2557 11.3935 23.1491 12.0838 23.0213C12.7741 22.8935 13.2898 22.7187 13.6307 22.4972C13.9716 22.2756 14.1761 21.9773 14.2443 21.6023V21.5511C14.321 21.0398 14.1847 20.6477 13.8352 20.375C13.4943 20.1023 13.017 19.9659 12.4034 19.9659C11.7386 19.9659 11.1634 20.1108 10.6776 20.4006C10.2003 20.6903 9.87216 21.142 9.69318 21.7557H3.19886C3.47159 20.5625 4.02983 19.4631 4.87358 18.4574C5.72585 17.4432 6.85511 16.6335 8.26136 16.0284C9.67614 15.4148 11.3636 15.108 13.3239 15.108C14.7216 15.108 15.9489 15.2741 17.0057 15.6065C18.0625 15.9304 18.9361 16.3864 19.6264 16.9744C20.3253 17.554 20.8153 18.2358 21.0966 19.0199C21.3864 19.7955 21.4545 20.6392 21.3011 21.5511L19.0511 35H12.4545L12.9148 32.2386H12.7614C12.25 32.9716 11.6747 33.5639 11.0355 34.0156C10.4048 34.4673 9.71449 34.7955 8.96449 35C8.22301 35.2045 7.42614 35.3068 6.57386 35.3068ZM9.64205 30.858C10.1705 30.858 10.6903 30.7472 11.2017 30.5256C11.7131 30.304 12.152 29.9844 12.5185 29.5668C12.8849 29.1491 13.1193 28.642 13.2216 28.0455L13.4773 26.4091C13.2898 26.4858 13.081 26.5582 12.8509 26.6264C12.6293 26.6861 12.3949 26.7457 12.1477 26.8054C11.9091 26.8651 11.6534 26.9205 11.3807 26.9716C11.1165 27.0227 10.8438 27.0739 10.5625 27.125C10 27.2102 9.52699 27.3509 9.14347 27.5469C8.75994 27.7344 8.46165 27.9688 8.24858 28.25C8.03551 28.5227 7.90341 28.8295 7.85227 29.1705C7.77557 29.7074 7.89915 30.125 8.22301 30.4233C8.5554 30.7131 9.02841 30.858 9.64205 30.858ZM36.5877 26.4091L38.4286 15.3636H45.4854L42.2127 35H35.5139L36.1275 31.267H35.9229C35.3178 32.5199 34.4144 33.5 33.2127 34.2074C32.0195 34.9062 30.69 35.2557 29.2241 35.2557C27.8519 35.2557 26.7056 34.9403 25.7852 34.3097C24.8647 33.679 24.2127 32.8097 23.8292 31.7017C23.4457 30.5937 23.369 29.3239 23.5991 27.892L25.6957 15.3636H32.7525L30.9116 26.4091C30.7667 27.3807 30.8903 28.1435 31.2823 28.6974C31.6829 29.2514 32.3263 29.5284 33.2127 29.5284C33.8008 29.5284 34.3292 29.4048 34.7979 29.1577C35.2752 28.902 35.6673 28.544 35.9741 28.0838C36.2894 27.6151 36.494 27.0568 36.5877 26.4091ZM60.7848 15.3636L59.9155 20.4773H46.978L47.8473 15.3636H60.7848ZM51.12 10.6591H58.1768L55.1854 28.6847C55.1428 28.9574 55.1513 29.1875 55.2109 29.375C55.2706 29.554 55.3899 29.6903 55.5689 29.7841C55.7564 29.8693 56.0036 29.9119 56.3104 29.9119C56.5149 29.9119 56.7663 29.8864 57.0646 29.8352C57.3629 29.7756 57.5888 29.733 57.7422 29.7074L57.9467 34.6676C57.5888 34.7699 57.1072 34.8849 56.5021 35.0128C55.9055 35.1491 55.2109 35.2386 54.4183 35.2812C52.7649 35.358 51.4183 35.1832 50.3786 34.7571C49.3473 34.331 48.6314 33.6662 48.2308 32.7628C47.8388 31.8509 47.7706 30.7131 48.0263 29.3494L51.12 10.6591ZM69.5898 35.358C67.4592 35.358 65.7035 34.9361 64.3228 34.0923C62.9506 33.2401 61.9876 32.0554 61.4336 30.5384C60.8796 29.0128 60.7688 27.2443 61.1012 25.233C61.4336 23.2216 62.1282 21.4574 63.185 19.9403C64.2418 18.4148 65.6012 17.2301 67.2631 16.3864C68.9251 15.5341 70.8256 15.108 72.9648 15.108C75.087 15.108 76.8342 15.5341 78.2063 16.3864C79.587 17.2301 80.5543 18.4148 81.1083 19.9403C81.6708 21.4574 81.7859 23.2216 81.4535 25.233C81.1211 27.2443 80.4222 29.0128 79.3569 30.5384C78.2915 32.0554 76.9279 33.2401 75.266 34.0923C73.6126 34.9361 71.7205 35.358 69.5898 35.358ZM70.4592 30.142C71.0728 30.142 71.631 29.9418 72.1339 29.5412C72.6452 29.1406 73.0799 28.5696 73.4379 27.8281C73.8043 27.0866 74.0728 26.2045 74.2433 25.1818C74.4137 24.1506 74.4393 23.2685 74.32 22.5355C74.2006 21.794 73.9535 21.223 73.5785 20.8224C73.2035 20.4219 72.7092 20.2216 72.0955 20.2216C71.4819 20.2216 70.9194 20.4219 70.408 20.8224C69.8967 21.223 69.462 21.794 69.104 22.5355C68.7461 23.2685 68.4819 24.1506 68.3114 25.1818C68.141 26.2045 68.1112 27.0866 68.2219 27.8281C68.3413 28.5696 68.5884 29.1406 68.9634 29.5412C69.3469 29.9418 69.8455 30.142 70.4592 30.142Z" fill="#333338"/>
<path d="M86.6694 35.4091C85.6722 35.4091 84.8583 35.0639 84.2276 34.3736C83.6055 33.6747 83.3455 32.8267 83.4478 31.8295C83.5501 30.858 83.989 30.027 84.7646 29.3366C85.5487 28.6463 86.4393 28.3011 87.4364 28.3011C88.3825 28.3011 89.1708 28.6463 89.8015 29.3366C90.4407 30.027 90.7092 30.858 90.6069 31.8295C90.5387 32.4943 90.3043 33.0994 89.9038 33.6449C89.5117 34.1818 89.0259 34.6122 88.4464 34.9361C87.8754 35.2514 87.283 35.4091 86.6694 35.4091ZM93.9819 35L97.2546 15.3636H103.953L103.34 19.0966H103.544C104.15 17.8693 105.006 16.8977 106.114 16.1818C107.222 15.4659 108.462 15.108 109.834 15.108C111.206 15.108 112.331 15.4744 113.209 16.2074C114.087 16.9318 114.53 17.8949 114.539 19.0966H114.743C115.272 17.8949 116.137 16.9318 117.338 16.2074C118.54 15.4744 119.874 15.108 121.34 15.108C123.206 15.108 124.625 15.7131 125.597 16.9233C126.577 18.1335 126.897 19.7443 126.556 21.7557L124.357 35H117.3L119.243 23.5455C119.363 22.6847 119.243 22.0114 118.885 21.5256C118.527 21.0312 117.982 20.7841 117.249 20.7841C116.525 20.7841 115.911 21.0312 115.408 21.5256C114.914 22.0114 114.607 22.6847 114.488 23.5455L112.544 35H105.794L107.738 23.5455C107.857 22.6847 107.738 22.0114 107.38 21.5256C107.022 21.0312 106.476 20.7841 105.743 20.7841C105.266 20.7841 104.831 20.8949 104.439 21.1165C104.056 21.3381 103.736 21.6577 103.48 22.0753C103.233 22.4844 103.067 22.9744 102.982 23.5455L101.039 35H93.9819ZM137.144 35.358C135.048 35.358 133.309 34.9574 131.928 34.1562C130.548 33.3466 129.576 32.1875 129.013 30.679C128.451 29.1619 128.349 27.3466 128.707 25.233C129.048 23.2045 129.751 21.4318 130.816 19.9148C131.89 18.3977 133.241 17.2173 134.869 16.3736C136.505 15.5298 138.337 15.108 140.366 15.108C141.849 15.108 143.148 15.3381 144.265 15.7983C145.39 16.2585 146.306 16.9276 147.013 17.8054C147.721 18.6832 148.198 19.7443 148.445 20.9886C148.701 22.2244 148.701 23.6222 148.445 25.1818L148.19 26.8182H130.65L131.263 22.9318H142.309C142.394 22.3693 142.339 21.875 142.143 21.4489C141.955 21.0142 141.653 20.6776 141.235 20.4389C140.826 20.1918 140.332 20.0682 139.752 20.0682C139.173 20.0682 138.627 20.1918 138.116 20.4389C137.613 20.6861 137.183 21.0312 136.825 21.4744C136.475 21.9176 136.241 22.4375 136.121 23.0341L135.354 27.125C135.252 27.7557 135.29 28.3182 135.469 28.8125C135.648 29.3068 135.96 29.6946 136.403 29.9759C136.846 30.2571 137.417 30.3977 138.116 30.3977C138.593 30.3977 139.045 30.3338 139.471 30.206C139.906 30.0696 140.289 29.8736 140.621 29.6179C140.962 29.3537 141.235 29.0341 141.44 28.6591H147.883C147.423 30.0227 146.694 31.2074 145.697 32.2131C144.708 33.2102 143.489 33.9858 142.04 34.5398C140.6 35.0852 138.968 35.358 137.144 35.358ZM159.098 35.358C156.967 35.358 155.211 34.9361 153.831 34.0923C152.45 33.2401 151.483 32.0554 150.929 30.5384C150.375 29.0128 150.268 27.2443 150.609 25.233C150.933 23.2216 151.623 21.4574 152.68 19.9403C153.745 18.4148 155.109 17.2301 156.771 16.3864C158.441 15.5341 160.342 15.108 162.473 15.108C164.399 15.108 166.005 15.4574 167.292 16.1562C168.588 16.8466 169.512 17.8267 170.066 19.0966C170.629 20.358 170.774 21.8409 170.501 23.5455H163.956C164.032 22.5227 163.866 21.7386 163.457 21.1932C163.056 20.6477 162.473 20.375 161.706 20.375C161.075 20.375 160.495 20.554 159.967 20.9119C159.447 21.2614 159 21.794 158.625 22.5099C158.258 23.2173 157.99 24.108 157.819 25.1818C157.649 26.2557 157.627 27.1506 157.755 27.8665C157.892 28.5739 158.156 29.1065 158.548 29.4645C158.949 29.8139 159.456 29.9886 160.069 29.9886C160.598 29.9886 161.083 29.8693 161.527 29.6307C161.978 29.3835 162.366 29.0256 162.69 28.5568C163.022 28.0795 163.274 27.5 163.444 26.8182H169.99C169.666 28.5568 169.014 30.0653 168.034 31.3438C167.054 32.6222 165.805 33.6108 164.288 34.3097C162.771 35.0085 161.041 35.358 159.098 35.358Z" fill="#F59D2A"/>
</svg>
